<?xml version="1.0" standalone="no"?>
<!DOCTYPE svg PUBLIC "-//W3C//DTD SVG 20010904//EN"
 "http://www.w3.org/TR/2001/REC-SVG-20010904/DTD/svg10.dtd">
<svg version="1.0" xmlns="http://www.w3.org/2000/svg"
 width="365.000000pt" height="272.000000pt" viewBox="0 0 365.000000 272.000000"
 preserveAspectRatio="xMidYMid meet">

<g transform="translate(0.000000,272.000000) scale(0.100000,-0.100000)"
fill="#000000" stroke="none">
<path d="M1143 2404 c-4 -11 15 -36 58 -80 59 -60 99 -81 99 -51 0 13 -130
147 -143 147 -4 0 -10 -7 -14 -16z"/>
<path d="M1791 2406 c-8 -9 -11 -46 -9 -103 3 -80 5 -88 23 -88 17 0 21 8 25
50 l5 50 37 -53 c59 -81 69 -72 66 51 -2 83 -6 102 -18 102 -11 0 -16 -14 -18
-58 l-3 -58 -44 61 c-25 33 -47 60 -49 60 -2 0 -9 -6 -15 -14z"/>
<path d="M2497 2352 c-68 -69 -81 -92 -49 -92 26 0 146 125 139 144 -4 9 -10
16 -14 16 -5 0 -39 -30 -76 -68z"/>
<path d="M1633 2316 c-176 -65 -327 -216 -393 -393 -11 -30 -18 -59 -15 -64
15 -23 34 -4 55 52 67 179 234 333 413 380 34 10 47 18 47 31 0 24 -30 23
-107 -6z"/>
<path d="M1992 2325 c2 -9 38 -30 84 -48 109 -44 171 -86 243 -162 55 -59 141
-206 141 -241 0 -17 24 -29 39 -19 13 7 -24 113 -63 179 -68 115 -207 231
-339 281 -78 29 -110 32 -105 10z"/>
<path d="M1842 2148 c-6 -6 -23 -63 -38 -127 -15 -64 -28 -118 -30 -120 -2 -2
-43 20 -91 49 -65 38 -92 49 -103 42 -25 -16 -23 -37 11 -93 41 -68 59 -89 76
-89 20 0 16 27 -13 76 l-26 45 61 -38 c44 -28 61 -44 61 -60 0 -24 -16 -30
-215 -79 -122 -30 -137 -38 -133 -68 3 -17 22 -25 126 -51 68 -16 123 -35 123
-40 0 -6 -21 -45 -46 -87 -76 -125 -50 -148 80 -69 47 27 86 47 89 43 2 -4 16
-57 31 -119 43 -181 74 -180 119 3 16 65 30 120 31 122 1 1 41 -20 88 -49 131
-78 156 -54 78 74 -55 89 -58 97 -37 97 7 0 21 10 29 23 14 18 18 20 26 7 8
-12 19 -12 71 -2 82 17 109 28 117 48 10 27 -18 41 -139 69 -65 15 -118 29
-118 32 0 2 23 42 51 88 51 83 56 109 25 121 -9 3 -54 -17 -101 -46 -48 -29
-88 -50 -90 -49 -2 2 -15 56 -30 119 -15 63 -32 121 -37 128 -13 15 -31 15
-46 0z m219 -280 c-28 -47 -43 -62 -57 -60 -23 5 -21 3 -26 26 -2 14 13 29 57
57 33 21 61 38 62 38 2 1 -15 -27 -36 -61z m4 -350 c15 -27 23 -48 18 -48 -4
0 -31 16 -60 35 -40 26 -50 39 -46 54 6 23 33 32 49 17 6 -6 24 -32 39 -58z
m-315 38 c0 -17 -10 -30 -33 -44 -19 -11 -47 -28 -63 -38 l-29 -19 25 40 c48
80 52 85 76 85 19 0 24 -5 24 -24z"/>
<path d="M1144 1786 c-3 -8 3 -55 13 -103 14 -66 23 -89 36 -91 17 -3 22 6 52
83 6 17 10 11 25 -30 33 -96 76 -43 83 100 1 38 -1 50 -12 50 -10 0 -19 -18
-26 -50 -10 -41 -13 -46 -20 -30 -4 11 -14 35 -21 53 -18 44 -35 37 -56 -24
-9 -27 -17 -47 -18 -44 -1 3 -7 25 -13 49 -12 46 -33 64 -43 37z"/>
<path d="M2487 1794 c-4 -4 -7 -52 -7 -106 l0 -99 53 3 c38 2 52 7 52 18 0 10
-12 16 -32 18 -43 4 -47 39 -5 44 19 2 27 9 27 23 0 14 -8 21 -27 23 -42 5
-38 40 5 44 52 5 42 32 -13 36 -25 2 -49 0 -53 -4z"/>
<path d="M1225 1540 c-10 -16 24 -109 68 -185 54 -93 155 -190 253 -242 97
-51 199 -82 216 -65 18 18 -1 31 -68 48 -73 20 -132 50 -210 107 -95 70 -156
157 -222 320 -12 28 -26 35 -37 17z"/>
<path d="M2467 1533 c-2 -4 -12 -31 -21 -60 -34 -104 -136 -229 -244 -301 -29
-19 -87 -47 -130 -62 -52 -19 -78 -33 -81 -45 -3 -16 2 -17 40 -11 58 8 192
75 251 124 76 63 137 141 178 227 45 93 52 128 28 133 -9 2 -18 -1 -21 -5z"/>
<path d="M1816 1161 c-10 -11 -16 -31 -14 -48 2 -22 13 -32 52 -51 46 -22 48
-24 32 -40 -16 -16 -19 -16 -47 1 -32 18 -49 15 -49 -8 0 -18 51 -45 83 -45
28 0 67 38 67 67 0 25 -26 49 -69 64 -17 6 -30 16 -28 23 4 12 32 13 59 1 12
-5 20 -2 25 10 15 41 -78 62 -111 26z"/>
<path d="M1201 1066 c-43 -44 -62 -69 -58 -80 4 -9 10 -16 14 -16 17 0 145
138 139 149 -13 21 -32 11 -95 -53z"/>
<path d="M2430 1112 c0 -19 120 -142 139 -142 31 0 16 29 -45 91 -70 70 -94
83 -94 51z"/>
<path d="M695 738 c-3 -7 -4 -114 -3 -238 l3 -225 48 -3 c62 -4 77 9 77 64 l0
44 63 0 c82 1 137 26 173 80 68 103 23 250 -85 280 -54 15 -270 13 -276 -2z
m247 -115 c21 -19 24 -80 6 -106 -8 -11 -33 -20 -64 -23 -44 -6 -53 -4 -62 12
-14 28 -14 117 1 126 22 14 100 9 119 -9z m-152 -213 c0 -5 -8 -10 -17 -10
-15 0 -16 2 -3 10 19 12 20 12 20 0z m-52 -35 c-3 -3 -9 2 -12 12 -6 14 -5 15
5 6 7 -7 10 -15 7 -18z"/>
<path d="M1119 728 c-3 -95 2 -441 6 -448 3 -5 103 -8 233 -7 l227 2 14 33 15
32 93 0 93 0 15 -36 c14 -35 14 -35 72 -32 44 2 59 7 61 19 2 10 -25 84 -58
165 -100 241 -107 258 -113 277 -5 14 -18 17 -65 17 -36 0 -63 -5 -69 -12 -5
-7 -35 -80 -68 -163 -32 -82 -67 -172 -79 -200 -20 -49 -21 -50 -26 -20 l-5
30 -110 5 -110 5 -3 178 -2 177 -60 0 c-55 0 -60 -2 -61 -22z m614 -172 c13
-10 14 -15 6 -18 -9 -3 -6 -11 9 -26 12 -12 18 -22 12 -22 -5 0 -10 -7 -10
-15 0 -19 -27 -33 -56 -27 -33 6 -36 14 -20 53 7 19 16 42 19 52 8 20 16 21
40 3z m57 -96 c14 -19 15 -19 22 -3 5 14 7 13 6 -7 0 -28 -15 -83 -17 -62 -1
7 -5 11 -10 8 -5 -4 -16 -3 -25 0 -13 5 -14 9 -5 20 6 8 9 25 7 39 -6 30 2 32
22 5z m-117 -64 c-5 -7 -9 -5 -11 7 -3 14 -10 17 -25 13 -20 -5 -20 -4 -5 8
10 7 17 15 15 17 -1 3 6 -4 15 -14 10 -11 15 -24 11 -31z m74 19 c-24 -23 -30
-18 -10 9 10 13 19 20 21 15 2 -5 -3 -16 -11 -24z m-596 -8 c-10 -9 -11 -8 -5
6 3 10 9 15 12 12 3 -3 0 -11 -7 -18z m699 -17 c0 -5 -2 -10 -4 -10 -3 0 -8 5
-11 10 -3 6 -1 10 4 10 6 0 11 -4 11 -10z"/>
<path d="M1987 743 c-4 -3 -7 -109 -7 -235 0 -175 3 -228 13 -229 6 -1 32 -2
57 -3 l45 -1 3 113 c3 111 1 118 -31 113 -5 -1 -6 3 -2 8 3 6 11 8 18 5 7 -2
13 4 14 16 2 22 -7 26 -23 10 -6 -6 -15 -6 -24 0 -13 8 -12 10 2 10 11 0 15 5
12 15 -4 8 -12 15 -20 15 -16 0 -19 26 -4 35 5 3 7 0 4 -8 -3 -9 3 -16 14 -19
15 -4 18 -1 15 13 -4 14 0 19 17 19 16 0 20 -4 16 -15 -4 -13 -2 -13 14 -5 28
15 31 13 20 -15 -5 -14 -7 -32 -4 -40 5 -11 2 -13 -12 -8 -17 6 -17 5 1 -24
11 -17 34 -48 51 -69 17 -22 53 -66 80 -99 26 -33 52 -63 58 -67 18 -12 83 -9
94 5 6 7 9 96 9 237 l-2 225 -60 0 -60 0 0 -120 c0 -72 -4 -120 -10 -120 -6 0
-15 -3 -20 -7 -6 -4 -11 3 -10 16 0 15 -33 63 -88 130 -86 105 -87 106 -130
106 -24 0 -47 -3 -50 -7z m193 -207 c-7 -7 -13 -7 -20 0 -6 6 -3 10 10 10 13
0 16 -4 10 -10z m170 -26 c0 -5 -2 -10 -4 -10 -3 0 -8 5 -11 10 -3 6 -1 10 4
10 6 0 11 -4 11 -10z m-37 -50 c10 -12 9 -12 -5 -2 -11 9 -18 10 -23 2 -9 -15
-25 -12 -25 5 0 18 35 15 53 -5z m-33 -36 c0 -2 -7 -4 -15 -4 -8 0 -15 4 -15
10 0 5 7 7 15 4 8 -4 15 -8 15 -10z"/>
<path d="M2477 744 c-12 -12 -8 -152 4 -156 9 -3 9 -9 0 -25 -12 -24 -15 -262
-3 -278 4 -5 30 -10 57 -10 l50 0 0 235 0 235 -50 3 c-28 2 -54 0 -58 -4z m59
-89 c-11 -8 -25 -15 -30 -15 -6 1 0 7 14 15 32 19 40 18 16 0z m44 -40 c0 -7
-30 -13 -34 -7 -3 4 4 9 15 9 10 1 19 0 19 -2z"/>
<path d="M2622 693 l3 -58 70 -3 70 -3 -1 -162 c0 -89 3 -170 8 -179 6 -12 20
-17 46 -16 73 2 72 -1 72 188 l0 170 69 0 c76 0 77 1 77 75 l-1 40 -208 3
-208 2 3 -57z m188 -13 c0 -5 -5 -10 -11 -10 -5 0 -7 5 -4 10 3 6 8 10 11 10
2 0 4 -4 4 -10z m10 -65 c0 -5 -5 -3 -10 5 -5 8 -10 20 -10 25 0 6 5 3 10 -5
5 -8 10 -19 10 -25z"/>
</g>
</svg>
